<?xml version="1.0" encoding="UTF-8"?>
<svg width="239px" height="45px" viewBox="0 0 239 45" version="1.1" xmlns="http://www.w3.org/2000/svg" xmlns:xlink="http://www.w3.org/1999/xlink">
    <!-- Generator: Sketch 51.3 (57544) - http://www.bohemiancoding.com/sketch -->
    <title>logo</title>
    <desc>Created with Sketch.</desc>
    <defs></defs>
    <g id="Page-1" stroke="none" stroke-width="1" fill="none" fill-rule="evenodd">
        <g id="logo" fill="#CF111A" fill-rule="nonzero">
            <path d="M215.058134,32.1550244 L215.058134,31.9975244 C215.058134,31.8811829 215.101538,31.8049024 215.188897,31.7703293 C215.276805,31.7352073 215.378449,31.7181951 215.495476,31.7181951 L215.792715,31.7181951 C215.985014,31.7181951 216.108635,31.7516707 216.164676,31.818622 C216.219619,31.8855732 216.24764,31.9975244 216.24764,32.1550244 L216.24764,32.4689268 C216.24764,32.6028293 216.230058,32.7098415 216.194895,32.7877683 C216.159731,32.8667927 216.083911,32.9057561 215.967433,32.9057561 L215.504267,32.9057561 C215.352626,32.9057561 215.239994,32.881061 215.167469,32.8316707 C215.093846,32.7828293 215.058134,32.6994146 215.058134,32.5825244 L215.058134,32.1550244 Z" id="Fill-28"></path>
            <path d="M222.753879,31.2900915 C222.90552,30.9229573 223.07804,30.5097256 223.269789,30.0492988 C223.462637,29.5894207 223.663727,29.1064939 223.873608,28.5994207 C224.083488,28.0928963 224.298313,27.5704573 224.516435,27.0315549 C224.735106,26.4932012 224.949382,25.9630793 225.159263,25.4417378 C225.369143,24.9203963 225.570233,24.4155183 225.763081,23.9260061 C225.954831,23.4364939 226.12735,22.988689 226.278991,22.5803963 C226.348769,22.3998476 226.412502,22.2604573 226.47129,22.161128 C226.529529,22.0623476 226.593812,21.9899085 226.663589,21.9427134 C226.733366,21.8966159 226.812483,21.868628 226.899842,21.8598476 C226.987201,21.8510671 227.092141,21.8466768 227.214663,21.8466768 C227.343228,21.8466768 227.433334,21.8658841 227.485529,21.90375 C227.538274,21.9416159 227.564097,22.0008841 227.564097,22.0826524 C227.564097,22.1117378 227.559702,22.1424695 227.550911,22.1742988 C227.54267,22.2066768 227.538274,22.2280793 227.538274,22.2401524 L223.436265,32.1900915 C223.395608,32.2833841 223.35495,32.376128 223.314293,32.468872 C223.273086,32.5621646 223.235175,32.6554573 223.200012,32.74875 C223.147817,32.8305183 223.067601,32.878811 222.959364,32.8930793 C222.851677,32.9073476 222.724759,32.9150305 222.579711,32.9150305 C222.497297,32.9150305 222.429169,32.8930793 222.373677,32.8491768 C222.318185,32.8058232 222.290713,32.7547866 222.290713,32.6966159 L217.94366,22.2401524 C217.920585,22.2165549 217.909596,22.161128 217.909596,22.073872 C217.909596,21.9630183 217.957946,21.8977134 218.057391,21.8774085 C218.156837,21.8571037 218.284854,21.8466768 218.441989,21.8466768 C218.552973,21.8466768 218.658463,21.8571037 218.757359,21.8774085 C218.856256,21.8977134 218.926033,21.9547866 218.96724,22.0475305 C219.142506,22.478872 219.334256,22.948628 219.544136,23.4584451 C219.754017,23.9682622 219.971589,24.4978354 220.196304,25.0482622 C220.42047,25.598689 220.647932,26.1589939 220.878141,26.7297256 C221.10835,27.3004573 221.335812,27.8569207 221.560527,28.3980183 C221.784693,28.9402134 221.99787,29.4571646 222.198959,29.9494207 C222.3995,30.441128 222.584656,30.8883841 222.753879,31.2900915" id="Fill-30"></path>
            <path d="M229.427418,22.1877439 C229.427418,22.0829268 229.458186,22.0028049 229.518623,21.947378 C229.57906,21.8919512 229.658726,21.8645122 229.757073,21.8645122 L230.112002,21.8645122 C230.216393,21.8645122 230.29551,21.8946951 230.350453,21.9561585 C230.405395,22.0170732 230.432866,22.0944512 230.432866,22.1877439 L230.432866,23.4713415 C230.683404,23.0926829 230.966908,22.7831707 231.281729,22.5417073 C231.596,22.2996951 231.919611,22.1103659 232.252563,21.9731707 C232.584416,21.8365244 232.912423,21.7432317 233.236584,21.6938415 C233.559646,21.6444512 233.858533,21.6197561 234.132147,21.6197561 C234.802995,21.6197561 235.415055,21.7421341 235.969425,21.9863415 C236.523246,22.2310976 236.995202,22.5658537 237.385843,22.9911585 C237.776485,23.4164634 238.079768,23.9114634 238.295692,24.4761585 C238.511066,25.0414024 238.618754,25.6439634 238.618754,26.2843902 L238.618754,32.5218293 C238.618754,32.6496951 238.587437,32.7462805 238.524253,32.809939 C238.45997,32.8741463 238.376457,32.9059756 238.272616,32.9059756 L237.951751,32.9059756 C237.818241,32.9059756 237.728685,32.8768902 237.682533,32.8187195 C237.636381,32.7605488 237.613306,32.6639634 237.613306,32.530061 L237.613306,26.2580488 C237.595724,25.8042073 237.505069,25.3602439 237.341889,24.9261585 C237.178161,24.492622 236.947951,24.1068293 236.650163,23.7682317 C236.352374,23.4307317 235.987007,23.1585366 235.555708,22.9521951 C235.12331,22.7453049 234.630476,22.6415854 234.075556,22.6415854 C233.626676,22.6415854 233.187135,22.725 232.758034,22.8907317 C232.328384,23.0564634 231.944885,23.2896951 231.606439,23.5893293 C231.267993,23.8895122 230.992181,24.2489634 230.779004,24.6682317 C230.565827,25.0880488 230.450448,25.5506707 230.432866,26.0571951 L230.432866,32.6266463 C230.432866,32.8132317 230.346607,32.9059756 230.172439,32.9059756 L229.713669,32.9059756 C229.528512,32.9059756 229.436209,32.8132317 229.436209,32.6266463 L229.436209,30.2070732 C229.430165,30.1895122 229.427418,30.1576829 229.427418,30.1110366 L229.427418,22.1877439 Z" id="Fill-32"></path>
            <path d="M31.8806221,21.7030061 L25.8792497,15.7086768 L25.8792497,12.2014207 L31.2636175,15.3064207 C31.645468,15.5264817 31.8806221,15.933128 31.8806221,16.3737988 L31.8806221,21.7030061 Z M31.2636175,29.7541646 L25.9962772,32.7916646 L14.06276,20.8727012 L14.06276,32.8591646 L8.67784276,29.7541646 C8.29654161,29.5341037 8.06083816,29.1269085 8.06083816,28.6867866 L8.06083816,16.3737988 C8.06083816,15.933128 8.29654161,15.5264817 8.67784276,15.3064207 L13.9468313,12.268372 L31.3773485,29.6778841 C31.3410864,29.7047744 31.3037255,29.7311159 31.2636175,29.7541646 Z M38.0089117,10.5172134 L21.3635232,0.918493902 C20.5003761,0.42020122 19.4361393,0.42020122 18.5729922,0.918493902 L1.92760368,10.5172134 C1.06390713,11.0149573 0.532063448,11.935811 0.532063448,12.9312988 L0.532063448,32.1292866 C0.532063448,33.1247744 1.06390713,34.0450793 1.92760368,34.5428232 L18.5729922,44.1420915 C19.4361393,44.6398354 20.5003761,44.6398354 21.3635232,44.1420915 L38.0089117,34.5428232 C38.8726083,34.0450793 39.404452,33.1247744 39.404452,32.1292866 L39.404452,12.9312988 C39.404452,11.935811 38.8726083,11.0149573 38.0089117,10.5172134 Z" id="Fill-34"></path>
            <path d="M49.8952333,13.0543902 C49.8952333,12.879878 49.9479782,12.7328049 50.0540172,12.6131707 C50.1600563,12.4935366 50.3095,12.4337195 50.5028977,12.4337195 L53.6796747,12.4337195 C53.8082402,12.4337195 53.9302126,12.4639024 54.045592,12.5231707 C54.1604218,12.5835366 54.2642632,12.677378 54.3565667,12.8057927 C55.9306701,15.0503049 57.4915874,17.2783537 59.0382195,19.489939 C60.5848517,21.7015244 62.145769,23.9290244 63.7198724,26.1729878 L63.7198724,12.9578049 C63.7473437,12.792622 63.8165713,12.6636585 63.9275552,12.5714634 C64.0374402,12.4798171 64.1709506,12.4337195 64.3280862,12.4337195 L66.9933483,12.4337195 C67.1774057,12.4337195 67.3361897,12.4891463 67.4697,12.5989024 C67.6026609,12.7097561 67.6702402,12.8568293 67.6702402,13.0406707 L67.6702402,32.3533537 C67.6702402,32.7303659 67.4537667,32.9185976 67.0208195,32.9185976 L64.0237046,32.9185976 C63.8209667,32.9185976 63.6325138,32.795122 63.4577966,32.5470732 C61.836992,30.2010366 60.2233299,27.8588415 58.6168103,25.5182927 C57.0102908,23.1777439 55.4010241,20.830061 53.7901092,18.4757927 L53.7901092,32.3121951 C53.7901092,32.5141463 53.7417598,32.6661585 53.6450609,32.7671341 C53.5483621,32.8686585 53.3846333,32.9185976 53.1549736,32.9185976 L50.5028977,32.9185976 C50.2908195,32.9185976 50.1369805,32.8664634 50.0402816,32.7605488 C49.9435828,32.6551829 49.8952333,32.5097561 49.8952333,32.3259146 L49.8952333,13.0543902 Z" id="Fill-36"></path>
            <path d="M80.0307159,18.5448293 C79.4873343,18.5448293 78.9582377,18.6436098 78.4423274,18.8411707 C77.926417,19.0392805 77.4550101,19.3081829 77.0270078,19.6484268 C76.5984561,19.9886707 76.2259457,20.3887317 75.9083779,20.8486098 C75.5902607,21.3084878 75.3578538,21.8045854 75.2106078,22.3385488 L84.9887297,22.3385488 C84.8414837,21.7776951 84.618417,21.2645854 84.3189802,20.7997683 C84.0195434,20.3360488 83.658571,19.9359878 83.2349641,19.6001341 C82.8113572,19.2642805 82.327863,19.0047073 81.7844814,18.8203171 C81.2416492,18.6370244 80.6570607,18.5448293 80.0307159,18.5448293 M86.1628515,30.987878 C85.3524492,31.6776951 84.4662262,32.220439 83.5041825,32.615561 C82.5415894,33.0101341 81.4850446,33.2087927 80.334548,33.2087927 C79.091748,33.2087927 77.9132308,32.9739146 76.7989963,32.5047073 C75.6847618,32.0360488 74.7084331,31.3923293 73.871109,30.5740976 C73.0332354,29.7553171 72.3678814,28.7965976 71.8755963,27.6973902 C71.3827618,26.5987317 71.1366193,25.4144634 71.1366193,24.1451341 C71.1366193,23.3274512 71.2377136,22.5361098 71.4404515,21.7727561 C71.64264,21.0099512 71.9305389,20.2943415 72.3035986,19.6275732 C72.676109,18.9613537 73.1293848,18.3494634 73.6639756,17.793 C74.1974676,17.2365366 74.7941434,16.7607439 75.4523549,16.3650732 C76.1105664,15.9699512 76.8242699,15.6642805 77.5929159,15.4475122 C78.3615618,15.2318415 79.1741618,15.1237317 80.0307159,15.1237317 C80.7301343,15.1237317 81.4207618,15.2087927 82.1025986,15.3789146 C82.783886,15.5495854 83.4305595,15.7905 84.0426193,16.1027561 C84.6552285,16.4161098 85.2282791,16.7953171 85.7623205,17.2414756 C86.2963618,17.6870854 86.765571,18.1908659 87.1710469,18.7517195 C87.7232193,19.5244024 88.1286952,20.3569024 88.3863756,21.2486707 C88.6440561,22.1409878 88.773171,23.1293415 88.773171,24.2142805 C88.773171,24.4809878 88.7616331,24.7043415 88.7385572,24.8837927 C88.7154814,25.0626951 88.6577917,25.208122 88.5660377,25.317878 C88.4737343,25.4281829 88.3358285,25.5088537 88.151771,25.5593415 C87.9671641,25.610378 87.7100331,25.635622 87.3781802,25.635622 L75.1276446,25.635622 C75.2474193,26.2974512 75.4748814,26.8835488 75.8111297,27.3944634 C76.1473779,27.9048293 76.5457113,28.3367195 77.0061297,28.6906829 C77.466548,29.0451951 77.9681733,29.3119024 78.5115549,29.4908049 C79.0549366,29.6697073 79.5977687,29.7602561 80.1411503,29.7602561 C80.5559664,29.7602561 80.9537503,29.7185488 81.3356009,29.6356829 C81.7174515,29.5528171 82.0745779,29.4425122 82.4064308,29.3042195 C82.7377343,29.1664756 83.0432147,29.007878 83.3245205,28.8289756 C83.6052768,28.6495244 83.8519687,28.462939 84.0634975,28.2703171 C84.0634975,28.2609878 84.0684423,28.2560488 84.0772331,28.2560488 C84.1876676,28.155622 84.2937067,28.0744024 84.3948009,28.0151341 C84.4958952,27.9547683 84.6024837,27.9251341 84.7123687,27.9251341 C84.795332,27.9251341 84.8898331,27.953122 84.9958722,28.008 C85.1013618,28.0634268 85.2052032,28.155622 85.3068469,28.2840366 C85.5551871,28.5875122 85.7667159,28.8405 85.9419825,29.043 C86.1166998,29.2449512 86.2595503,29.4150732 86.3699848,29.5528171 C86.4804193,29.6916585 86.5611848,29.8101951 86.611732,29.9117195 C86.6622791,30.0126951 86.6875526,30.1142195 86.6875526,30.2151951 C86.6875526,30.4725732 86.512286,30.7299512 86.1628515,30.987878" id="Fill-38"></path>
            <path d="M98.3578402,32.9187073 C97.6304011,32.9099268 96.9469161,32.799622 96.3068356,32.5872439 C95.6673046,32.3759634 95.1096379,32.0697439 94.6360333,31.6696829 C94.1613299,31.2690732 93.7866218,30.7768171 93.5102609,30.1918171 C93.2339,29.6073659 93.0959943,28.9422439 93.0959943,28.1964512 L93.0959943,25.9179146 L93.0959943,18.8759634 L91.5076057,18.8759634 C91.2405851,18.8759634 91.0405943,18.8166951 90.9065345,18.6976098 C90.7735736,18.5785244 90.7065437,18.3815122 90.7065437,18.1060244 L90.7065437,16.1282195 C90.7065437,15.862061 90.7735736,15.674378 90.9065345,15.564622 C91.0405943,15.4543171 91.2405851,15.3999878 91.5076057,15.3999878 L93.0959943,15.3999878 C93.0959943,14.912122 93.098192,14.9653537 93.1031368,14.4824268 C93.1075322,13.9989512 93.1097299,14.3210854 93.1097299,13.8337683 C93.1097299,13.6499268 93.1668701,13.5055976 93.2822494,13.3991341 C93.3976287,13.2937683 93.5745437,13.199378 93.8140931,13.1165122 C93.9706793,13.0610854 94.1591322,12.9946829 94.3805506,12.9167561 C94.6014195,12.8382805 94.829431,12.7625488 95.0640356,12.6890122 C95.2986402,12.6149268 95.5266517,12.5534634 95.7480701,12.5024268 C95.9683897,12.4524878 96.1529966,12.4266951 96.3002425,12.4266951 C96.5853943,12.4266951 96.7716494,12.504622 96.8595575,12.6610244 C96.9469161,12.8179756 96.9908701,13.0248659 96.9908701,13.2822439 C96.9908701,13.8612073 96.988123,13.6318171 96.9837276,14.2058415 C96.9793322,14.7809634 96.9765851,14.8199268 96.9765851,15.3999878 L98.9655046,15.3999878 C99.205054,15.3999878 99.3891115,15.4609024 99.5182264,15.5854756 C99.646792,15.7089512 99.7110747,15.9037683 99.7110747,16.1688293 L99.7110747,18.0511463 C99.7110747,18.3447439 99.646792,18.5554756 99.5182264,18.6838902 C99.3891115,18.8112073 99.205054,18.8759634 98.9655046,18.8759634 L96.9765851,18.8759634 L96.9765851,20.3955366 L96.9765851,21.4930976 C96.9765851,21.8113902 96.9793322,22.1082805 96.9837276,22.3843171 C96.988123,22.6609024 96.9908701,22.9599878 96.9908701,23.282122 L96.9908701,24.3868171 L96.9908701,25.906939 C96.9908701,25.9250488 96.988123,25.9431585 96.9837276,25.9618171 C96.9793322,25.9799268 96.9765851,25.9985854 96.9765851,26.0172439 L96.9765851,27.827122 C96.9765851,28.4340732 97.0963598,28.8714512 97.3359092,29.1387073 C97.5754586,29.4059634 97.962254,29.5393171 98.4962954,29.5393171 C98.6896931,29.5393171 98.8413345,29.6084634 98.951769,29.7462073 C99.0622034,29.8845 99.1176954,30.0491341 99.1176954,30.2428537 L99.1176954,32.1597439 C99.1176954,32.399561 99.0506655,32.5861463 98.9177046,32.7195 C98.7836448,32.8523049 98.5973897,32.9187073 98.3578402,32.9187073" id="Fill-40"></path>
            <path d="M105.691404,24.145189 C105.691404,24.8816524 105.81997,25.5775061 106.0782,26.2354939 C106.33588,26.8934817 106.695204,27.47025 107.155623,27.9668963 C107.615491,28.4629939 108.156675,28.8564695 108.778075,29.1456768 C109.400025,29.4359817 110.078565,29.580311 110.815344,29.580311 C111.561464,29.580311 112.258685,29.4359817 112.908105,29.1456768 C113.556977,28.8564695 114.120687,28.4629939 114.599786,27.9668963 C115.078335,27.47025 115.45579,26.8934817 115.732151,26.2354939 C116.008512,25.5775061 116.146418,24.8816524 116.146418,24.145189 C116.146418,23.4191524 116.008512,22.7271402 115.732151,22.0697012 C115.45579,21.4122622 115.078335,20.8343963 114.599786,20.3382988 C114.120687,19.8411037 113.556977,19.4459817 112.908105,19.1512866 C112.258685,18.8571402 111.561464,18.7100671 110.815344,18.7100671 C110.078565,18.7100671 109.400025,18.8571402 108.778075,19.1512866 C108.156675,19.4459817 107.615491,19.8411037 107.155623,20.3382988 C106.695204,20.8343963 106.33588,21.4122622 106.0782,22.0697012 C105.81997,22.7271402 105.691404,23.4191524 105.691404,24.145189 Z M120.055029,32.10525 C120.055029,32.2704329 120.020416,32.4065305 119.951737,32.5118963 C119.88251,32.6172622 119.792404,32.7006768 119.68197,32.7604939 C119.571535,32.820311 119.445167,32.8614695 119.302317,32.8845183 C119.159466,32.9075671 119.010023,32.9185427 118.853436,32.9185427 L117.126593,32.9185427 C116.832101,32.9185427 116.627714,32.8411646 116.512335,32.6847622 C116.396956,32.527811 116.312344,32.3307988 116.256852,32.0909817 L116.173889,30.9187866 C115.851926,31.2409207 115.4948,31.5422012 115.103609,31.8220793 C114.712418,32.1030549 114.291009,32.3461646 113.839931,32.5530549 C113.388852,32.7604939 112.909754,32.9212866 112.403733,33.0359817 C111.897163,33.1512256 111.376857,33.2088476 110.842816,33.2088476 C110.014282,33.2088476 109.215418,33.100189 108.446772,32.8845183 C107.678126,32.6682988 106.95728,32.3648232 106.285333,31.9740915 C105.613386,31.5833598 105.003524,31.1119573 104.455197,30.5598841 C103.90742,30.0083598 103.437662,29.3964695 103.046471,28.725311 C102.65528,28.0541524 102.351448,27.3319573 102.134974,26.5592744 C101.918501,25.7871402 101.810813,24.9820793 101.810813,24.145189 C101.810813,23.3088476 101.918501,22.5037866 102.134974,21.7316524 C102.351448,20.9589695 102.65528,20.2367744 103.046471,19.5656159 C103.437662,18.8944573 103.90742,18.2847622 104.455197,17.7381768 C105.003524,17.1904939 105.613386,16.7218354 106.285333,16.3305549 C106.95728,15.9398232 107.678126,15.6363476 108.446772,15.4206768 C109.215418,15.2044573 110.014282,15.0963476 110.842816,15.0963476 C111.432349,15.0963476 111.993862,15.1583598 112.527903,15.2823841 C113.061944,15.4064085 113.561372,15.5814695 114.026186,15.8064695 C114.491549,16.0320183 114.921749,16.3031159 115.317885,16.620311 C115.713471,16.9375061 116.072795,17.2848841 116.394758,17.6618963 L116.588156,16.1862256 C116.634308,16.0204939 116.678262,15.8849451 116.719469,15.7784817 C116.760675,15.6731159 116.811772,15.5880549 116.871659,15.5238476 C116.931547,15.4596402 117.007367,15.4157378 117.099671,15.392689 C117.191425,15.3696402 117.306804,15.3581159 117.44471,15.3581159 L118.825965,15.3581159 C118.972662,15.3581159 119.120457,15.3718354 119.267703,15.3998232 C119.414949,15.4272622 119.548459,15.4706159 119.668234,15.5304329 C119.788009,15.5907988 119.88251,15.6731159 119.951737,15.7784817 C120.020416,15.8849451 120.055029,16.0161037 120.055029,16.1719573 L120.055029,32.10525 Z" id="Fill-42"></path>
            <path d="M137.401375,27.2422866 C137.401375,26.71875 137.298083,26.2144207 137.091499,25.7271037 C136.884915,25.2414329 136.609103,24.8095427 136.264614,24.4330793 C135.920124,24.0566159 135.517945,23.7558841 135.058625,23.5308841 C134.599306,23.3058841 134.11691,23.1933841 133.612538,23.1933841 L125.703561,23.1933841 L125.703561,31.1946037 L133.708138,31.1946037 C134.204818,31.1946037 134.675126,31.0870427 135.12126,30.871372 C135.566294,30.6557012 135.959133,30.3681402 136.298678,30.0103354 C136.638223,29.6525305 136.907441,29.2343598 137.105234,28.7574695 C137.302478,28.2800305 137.401375,27.7746037 137.401375,27.2422866 Z M136.379444,17.78625 C136.379444,17.2643598 136.282745,16.7808841 136.089347,16.336372 C135.896499,15.8918598 135.633874,15.5071646 135.303669,15.1817378 C134.972366,14.856311 134.578977,14.6022256 134.124053,14.4189329 C133.669129,14.2356402 133.179041,14.1439939 132.65489,14.1439939 L125.703561,14.1439939 L125.703561,21.4691159 L132.641154,21.4691159 C133.165306,21.4691159 133.653195,21.3758232 134.103175,21.1875915 C134.553703,20.9999085 134.94929,20.7408841 135.289384,20.4110671 C135.629478,20.0817988 135.896499,19.6916159 136.089347,19.2427134 C136.282745,18.793811 136.379444,18.308689 136.379444,17.78625 Z M132.655439,12.4197256 C133.41914,12.4197256 134.132294,12.5552744 134.794352,12.826372 C135.456409,13.0974695 136.033855,13.4744817 136.525591,13.9568598 C137.017876,14.438689 137.404122,15.0066768 137.684878,15.6591768 C137.965085,16.3116768 138.105189,17.0141159 138.105189,17.7670427 C138.105189,18.6769207 137.89366,19.5039329 137.468405,20.2480793 C137.043149,20.9922256 136.479439,21.598628 135.777823,22.0672866 C136.265163,22.2697866 136.712945,22.5480183 137.121717,22.9025305 C137.53049,23.2564939 137.884869,23.6598476 138.183207,24.1103963 C138.482094,24.5614939 138.714501,25.0542988 138.879329,25.5877134 C139.044706,26.1216768 139.127669,26.6693598 139.127669,27.2307622 C139.127669,27.9853354 138.987566,28.7031402 138.707359,29.3841768 C138.426602,30.0657622 138.043103,30.666128 137.555763,31.186372 C137.068972,31.7066159 136.494274,32.1231402 135.832766,32.4359451 C135.170708,32.74875 134.458653,32.9100915 133.696051,32.918872 L124.40417,32.918872 C124.275605,32.9100915 124.176708,32.8689329 124.10803,32.7948476 C124.039352,32.721311 123.995398,32.6291159 123.976717,32.518811 L123.976717,12.943811 C123.976717,12.7144207 124.027264,12.5695427 124.128908,12.5097256 C124.229453,12.4499085 124.331097,12.4197256 124.43274,12.4197256 L132.655439,12.4197256 Z" id="Fill-44"></path>
            <path d="M143.257259,24.2073659 C143.257259,24.8785244 143.344618,25.5282805 143.519885,26.1577317 C143.694052,26.7871829 143.940744,27.3798659 144.258312,27.9357805 C144.57588,28.4922439 144.95828,29.0015122 145.404413,29.4652317 C145.851096,29.9295 146.348326,30.3268171 146.896103,30.6577317 C147.44388,30.9880976 148.029018,31.2454756 148.649869,31.4293171 C149.271818,31.6131585 149.922887,31.7053537 150.604724,31.7053537 C151.626105,31.7053537 152.590896,31.5099878 153.497997,31.1192561 C154.404549,30.7290732 155.198469,30.1956585 155.880305,29.5206585 C156.561593,28.8451098 157.100029,28.0554146 157.496165,27.1499268 C157.892301,26.2449878 158.090094,25.2730976 158.090094,24.2353537 C158.090094,23.2245 157.896696,22.261939 157.509901,21.3476707 C157.123105,20.4339512 156.595657,19.6321829 155.928105,18.9429146 C155.261103,18.2536463 154.478721,17.7048659 153.580411,17.2960244 C152.6832,16.8871829 151.723354,16.6824878 150.701423,16.6824878 C149.678942,16.6824878 148.714701,16.8822439 147.8076,17.2823049 C146.900498,17.6818171 146.110974,18.2262073 145.439027,18.9154756 C144.76708,19.6041951 144.234687,20.4032195 143.843496,21.3130976 C143.452305,22.2224268 143.257259,23.1877317 143.257259,24.2073659 M141.599643,24.2145 C141.599643,23.3863902 141.70788,22.5868171 141.924354,21.8141341 C142.140827,21.0414512 142.446308,20.3203537 142.842443,19.6480976 C143.238579,18.9774878 143.712733,18.3650488 144.265455,17.8140732 C144.817627,17.262 145.429687,16.7878537 146.102183,16.3927317 C146.774131,15.9976098 147.494427,15.6913902 148.263623,15.4757195 C149.032269,15.2595 149.831133,15.1513902 150.660216,15.1513902 C151.4882,15.1513902 152.287064,15.2595 153.05571,15.4757195 C153.824356,15.6913902 154.545202,15.9976098 155.217698,16.3927317 C155.889096,16.7878537 156.503903,17.262 157.06102,17.8140732 C157.618137,18.3650488 158.094489,18.9774878 158.490625,19.6480976 C158.886211,20.3203537 159.19279,21.0414512 159.408714,21.8141341 C159.625188,22.5868171 159.733425,23.3863902 159.733425,24.2145 C159.733425,25.042061 159.625188,25.8421829 159.408714,26.6148659 C159.19279,27.387 158.886211,28.1091951 158.490625,28.7803537 C158.094489,29.452061 157.618137,30.0634024 157.06102,30.6154756 C156.503903,31.1675488 155.889096,31.6411463 155.217698,32.0362683 C154.545202,32.4313902 153.824356,32.7376098 153.05571,32.9538293 C152.287064,33.1695 151.4882,33.2776098 150.660216,33.2776098 C149.831133,33.2776098 149.032269,33.1695 148.263623,32.9538293 C147.494427,32.7376098 146.774131,32.4313902 146.102183,32.0362683 C145.429687,31.6411463 144.817627,31.1675488 144.265455,30.6154756 C143.712733,30.0634024 143.238579,29.452061 142.842443,28.7803537 C142.446308,28.1091951 142.140827,27.387 141.924354,26.6148659 C141.70788,25.8421829 141.599643,25.042061 141.599643,24.2145" id="Fill-46"></path>
            <path d="M163.945484,24.2073659 C163.945484,24.8785244 164.032843,25.5282805 164.208109,26.1577317 C164.382826,26.7871829 164.628969,27.3798659 164.946537,27.9357805 C165.264105,28.4922439 165.647054,29.0015122 166.093187,29.4652317 C166.53987,29.9295 167.0371,30.3268171 167.584877,30.6577317 C168.132654,30.9880976 168.717243,31.2454756 169.339192,31.4293171 C169.960592,31.6131585 170.611661,31.7053537 171.292948,31.7053537 C172.315429,31.7053537 173.279121,31.5099878 174.186771,31.1192561 C175.092774,30.7290732 175.887792,30.1956585 176.56853,29.5206585 C177.250367,28.8451098 177.788254,28.0554146 178.184939,27.1499268 C178.581075,26.2449878 178.778868,25.2730976 178.778868,24.2353537 C178.778868,23.2245 178.58547,22.261939 178.198675,21.3476707 C177.811879,20.4339512 177.28498,19.6321829 176.616879,18.9429146 C175.949877,18.2536463 175.166946,17.7048659 174.269185,17.2960244 C173.371974,16.8871829 172.411578,16.6824878 171.389647,16.6824878 C170.367716,16.6824878 169.403475,16.8822439 168.496923,17.2823049 C167.589822,17.6818171 166.799748,18.2262073 166.127801,18.9154756 C165.455854,19.6041951 164.923461,20.4032195 164.53227,21.3130976 C164.141079,22.2224268 163.945484,23.1877317 163.945484,24.2073659 M162.287868,24.2145 C162.287868,23.3863902 162.396654,22.5868171 162.612578,21.8141341 C162.829052,21.0414512 163.135082,20.3203537 163.531217,19.6480976 C163.927353,18.9774878 164.401507,18.3650488 164.953679,17.8140732 C165.506401,17.262 166.118461,16.7878537 166.790957,16.3927317 C167.462355,15.9976098 168.183201,15.6913902 168.951847,15.4757195 C169.720493,15.2595 170.519907,15.1513902 171.34844,15.1513902 C172.176974,15.1513902 172.975838,15.2595 173.744484,15.4757195 C174.51258,15.6913902 175.233976,15.9976098 175.905923,16.3927317 C176.57842,16.7878537 177.192128,17.262 177.749794,17.8140732 C178.306911,18.3650488 178.783263,18.9774878 179.179948,19.6480976 C179.574985,20.3203537 179.881015,21.0414512 180.097489,21.8141341 C180.313413,22.5868171 180.422199,23.3863902 180.422199,24.2145 C180.422199,25.042061 180.313413,25.8421829 180.097489,26.6148659 C179.881015,27.387 179.574985,28.1091951 179.179948,28.7803537 C178.783263,29.452061 178.306911,30.0634024 177.749794,30.6154756 C177.192128,31.1675488 176.57842,31.6411463 175.905923,32.0362683 C175.233976,32.4313902 174.51258,32.7376098 173.744484,32.9538293 C172.975838,33.1695 172.176974,33.2776098 171.34844,33.2776098 C170.519907,33.2776098 169.720493,33.1695 168.951847,32.9538293 C168.183201,32.7376098 167.462355,32.4313902 166.790957,32.0362683 C166.118461,31.6411463 165.506401,31.1675488 164.953679,30.6154756 C164.401507,30.0634024 163.927353,29.452061 163.531217,28.7803537 C163.135082,28.1091951 162.829052,27.387 162.612578,26.6148659 C162.396654,25.8421829 162.287868,25.042061 162.287868,24.2145" id="Fill-48"></path>
            <path d="M187.555772,22.1108598 C188.296947,21.3793354 189.046912,20.6390305 189.806767,19.8899451 C190.566073,19.140311 191.317137,18.4022012 192.057763,17.6756159 C192.798937,16.9495793 193.492312,16.2685427 194.136788,15.6341524 C194.18294,15.5880549 194.232937,15.5490915 194.288429,15.5167134 C194.343921,15.4843354 194.408204,15.4684207 194.481827,15.4684207 L195.725177,15.4684207 C195.826271,15.4684207 195.897696,15.4986037 195.938903,15.5584207 C195.980659,15.617689 196.010328,15.68025 196.028459,15.7444573 C196.028459,15.8547622 195.996043,15.9650671 195.93176,16.075372 C194.863678,17.1240915 193.797793,18.1656768 192.735204,19.200128 C191.670967,20.2345793 190.605632,21.2811037 189.537,22.3386037 L198.224512,32.2841524 C198.307475,32.4131159 198.349232,32.5239695 198.349232,32.6156159 C198.349232,32.707811 198.30308,32.7742134 198.210777,32.8159207 C198.119023,32.8570793 198.007489,32.8845183 197.879473,32.8982378 C197.750358,32.9125061 197.61465,32.9163476 197.472349,32.9125061 C197.328949,32.9075671 197.206977,32.9048232 197.106432,32.9048232 C196.958636,32.9048232 196.817983,32.8916524 196.685023,32.8636646 C196.550963,32.8362256 196.457011,32.762689 196.402069,32.6430549 L195.725177,31.8846402 L188.432655,23.4279329 L185.490482,26.2283598 L185.490482,32.477872 C185.490482,32.7720183 185.344885,32.9185427 185.05259,32.9185427 L184.3268,32.9185427 C184.043846,32.9185427 183.902643,32.7720183 183.902643,32.477872 L183.902643,12.2267744 C183.902643,11.9419573 184.043846,11.7987256 184.3268,11.7987256 L185.05259,11.7987256 C185.180606,11.7987256 185.285547,11.8382378 185.36796,11.9167134 C185.449275,11.9946402 185.490482,12.097811 185.490482,12.2267744 L185.490482,24.145189 C186.125618,23.520128 186.814048,22.8418354 187.555772,22.1108598" id="Fill-50"></path>
            <path d="M200.365293,29.2771646 C200.346612,29.2316159 200.332327,29.1871646 200.324086,29.1460061 C200.314196,29.1048476 200.309801,29.0653354 200.309801,29.0291159 C200.309801,28.9094817 200.342217,28.8216768 200.4065,28.76625 C200.470783,28.711372 200.554295,28.6608841 200.65484,28.6147866 L201.193826,28.3804573 C201.211957,28.3716768 201.246571,28.3645427 201.297118,28.3596037 C201.347665,28.3552134 201.382829,28.3530183 201.40096,28.3530183 C201.475132,28.3530183 201.538865,28.3947256 201.593808,28.4770427 C201.649849,28.5593598 201.699847,28.658689 201.746548,28.7739329 C201.79215,28.888628 201.836104,29.0126524 201.877311,29.1460061 C201.918518,29.2793598 201.967417,29.3967988 202.022909,29.4972256 C202.197077,29.8747866 202.450911,30.2035061 202.781665,30.4839329 C203.113518,30.7649085 203.472293,30.9948476 203.859088,31.17375 C204.245884,31.3532012 204.639272,31.4865549 205.040353,31.5743598 C205.440884,31.6616159 205.806801,31.7055183 206.138104,31.7055183 C206.55292,31.7055183 207.019383,31.6429573 207.540238,31.5189329 C208.059994,31.3943598 208.548433,31.1995427 209.004456,30.9328354 C209.45993,30.666128 209.843978,30.3165549 210.15715,29.8841159 C210.470323,29.4516768 210.626909,28.9232012 210.626909,28.2981402 C210.626909,27.7367378 210.489003,27.2516159 210.212642,26.8422256 C209.936281,26.4333841 209.581902,26.0865549 209.148955,25.8006402 C208.716008,25.5158232 208.228668,25.2814939 207.684737,25.0976524 C207.141355,24.9132622 206.603468,24.76125 206.069426,24.6421646 C205.388139,24.4764329 204.729378,24.256372 204.094242,23.9797866 C203.458557,23.7042988 202.897045,23.3706402 202.409704,22.9793598 C201.921265,22.588628 201.530074,22.1380793 201.235583,21.6282622 C200.940541,21.1173476 200.793295,20.5449695 200.793295,19.9105793 C200.793295,19.1839939 200.924608,18.5265549 201.186684,17.9377134 C201.449858,17.3494207 201.819622,16.8456402 202.29872,16.4269207 C202.777819,16.0092988 203.352518,15.6871646 204.025015,15.4616159 C204.697511,15.2366159 205.443081,15.1235671 206.262274,15.1235671 C206.934222,15.1235671 207.551776,15.208628 208.113288,15.3792988 C208.674801,15.5494207 209.181371,15.7903354 209.6319,16.1031402 C210.083527,16.4159451 210.474718,16.7951524 210.806571,17.241311 C211.137874,17.6869207 211.413686,18.181372 211.635104,18.7241159 L211.620819,18.7103963 C211.676311,18.7932622 211.703783,18.8618598 211.703783,18.9172866 C211.703783,19.0001524 211.666971,19.0802744 211.593897,19.15875 C211.519725,19.2366768 211.432366,19.3080183 211.331272,19.3727744 C211.229629,19.4364329 211.130732,19.4874695 211.034033,19.5242378 C210.937334,19.5610061 210.861514,19.5796646 210.806571,19.5796646 C210.704927,19.5796646 210.626909,19.5610061 210.571417,19.5242378 C210.516474,19.4874695 210.468125,19.4364329 210.426369,19.3727744 C210.385162,19.3080183 210.343406,19.2273476 210.302199,19.1307622 C210.260992,19.0341768 210.207697,18.9310061 210.143415,18.8207012 C209.76541,18.2044207 209.250049,17.69625 208.596233,17.296189 C207.942966,16.896128 207.160035,16.696372 206.248539,16.696372 C205.751858,16.696372 205.274957,16.7605793 204.818934,16.8889939 C204.363461,17.0179573 203.957985,17.2133232 203.604155,17.4756402 C203.249226,17.7379573 202.96847,18.068872 202.761337,18.4689329 C202.553654,18.8689939 202.450911,19.3354573 202.450911,19.868872 C202.450911,20.32875 202.588817,20.7381402 202.865178,21.0970427 C203.141539,21.4559451 203.48438,21.7660061 203.893702,22.0283232 C204.303573,22.2900915 204.743114,22.506311 205.212872,22.6764329 C205.682631,22.8465549 206.110633,22.9777134 206.497429,23.0693598 C206.571051,23.0880183 206.617203,23.0995427 206.635334,23.1039329 C206.653465,23.1083232 206.66775,23.1110671 206.676541,23.1110671 C207.514964,23.303689 208.278665,23.5544817 208.969293,23.8628963 C209.65992,24.1707622 210.248904,24.53625 210.737343,24.9599085 C211.225233,25.3824695 211.602688,25.8675915 211.869709,26.4147256 C212.13673,26.9618598 212.27024,27.5803354 212.27024,28.2701524 C212.27024,29.0609451 212.104314,29.7666768 211.77356,30.3873476 C211.441707,31.0080183 210.992826,31.5326524 210.426369,31.9607012 C209.859911,32.3876524 209.206645,32.7141768 208.46492,32.9397256 C207.724295,33.1652744 206.947957,33.2777744 206.138104,33.2777744 C205.456817,33.2777744 204.803001,33.1905183 204.176656,33.0154573 C203.550861,32.8409451 202.982755,32.5835671 202.47124,32.2427744 C201.960274,31.9025305 201.520734,31.483811 201.152619,30.9877134 C200.784504,30.4910671 200.52133,29.9214329 200.365293,29.2771646" id="Fill-52"></path>
        </g>
    </g>
</svg>